<?xml version="1.0" encoding="UTF-8" standalone="no"?>
<!DOCTYPE svg PUBLIC "-//W3C//DTD SVG 1.1//EN"
 "http://www.w3.org/Graphics/SVG/1.1/DTD/svg11.dtd">
<!-- Generated by graphviz version 2.40.1 (20161225.0304)
 -->
<!-- Title: dependencies Pages: 1 -->
<svg width="2191pt" height="284pt"
 viewBox="0.00 0.00 2191.00 284.00" xmlns="http://www.w3.org/2000/svg" xmlns:xlink="http://www.w3.org/1999/xlink">
<g id="graph0" class="graph" transform="scale(1 1) rotate(0) translate(4 280)">
<title>dependencies</title>
<polygon fill="#ffffff" stroke="transparent" points="-4,4 -4,-280 2187,-280 2187,4 -4,4"/>
<text text-anchor="start" x="1070.5091" y="-42.4" font-family="sans-serif" font-weight="bold" font-size="14.00" fill="#000000">Legend</text>
<polygon fill="#ffffb3" stroke="transparent" points="857.5,-10 857.5,-30 877.5,-30 877.5,-10 857.5,-10"/>
<text text-anchor="start" x="881.129" y="-15.4" font-family="sans-serif" font-size="14.00" fill="#000000"> &#160;Declarations</text>
<polygon fill="#8dd3c7" stroke="transparent" points="970.5,-10 970.5,-30 990.5,-30 990.5,-10 970.5,-10"/>
<text text-anchor="start" x="994.2251" y="-15.4" font-family="sans-serif" font-size="14.00" fill="#000000"> &#160;Module</text>
<polygon fill="#80b1d3" stroke="transparent" points="1056.5,-10 1056.5,-30 1076.5,-30 1076.5,-10 1056.5,-10"/>
<text text-anchor="start" x="1080.2812" y="-15.4" font-family="sans-serif" font-size="14.00" fill="#000000"> &#160;Bootstrap</text>
<polygon fill="#fdb462" stroke="transparent" points="1153.5,-10 1153.5,-30 1173.5,-30 1173.5,-10 1153.5,-10"/>
<text text-anchor="start" x="1177.1732" y="-15.4" font-family="sans-serif" font-size="14.00" fill="#000000"> &#160;Providers</text>
<polygon fill="#fb8072" stroke="transparent" points="1249.5,-10 1249.5,-30 1269.5,-30 1269.5,-10 1249.5,-10"/>
<text text-anchor="start" x="1273.2258" y="-15.4" font-family="sans-serif" font-size="14.00" fill="#000000"> &#160;Exports</text>
<g id="clust1" class="cluster">
<title>cluster_AppModule</title>
<polygon fill="none" stroke="#000000" stroke-dasharray="1,5" points="8,-70 8,-268 2175,-268 2175,-70 8,-70"/>
</g>
<g id="clust2" class="cluster">
<title>cluster_AppModule_declarations</title>
<polygon fill="none" stroke="#000000" points="2045,-78 2045,-130 2167,-130 2167,-78 2045,-78"/>
</g>
<g id="clust4" class="cluster">
<title>cluster_AppModule_imports</title>
<polygon fill="none" stroke="#000000" points="148,-78 148,-130 2037,-130 2037,-78 148,-78"/>
</g>
<g id="clust6" class="cluster">
<title>cluster_AppModule_bootstrap</title>
<polygon fill="none" stroke="#000000" points="1019,-208 1019,-260 1143,-260 1143,-208 1019,-208"/>
</g>
<g id="clust7" class="cluster">
<title>cluster_AppModule_providers</title>
<polygon fill="none" stroke="#000000" points="16,-78 16,-130 140,-130 140,-78 16,-78"/>
</g>
<!-- AppComponent -->
<g id="node1" class="node">
<title>AppComponent</title>
<polygon fill="#ffffb3" stroke="#000000" points="2158.9399,-122 2053.0601,-122 2053.0601,-86 2158.9399,-86 2158.9399,-122"/>
<text text-anchor="middle" x="2106" y="-99.8" font-family="Times,serif" font-size="14.00" fill="#000000">AppComponent</text>
</g>
<!-- AppModule -->
<g id="node2" class="node">
<title>AppModule</title>
<polygon fill="#8dd3c7" stroke="#000000" points="1122.6571,-187 1119.6571,-191 1098.6571,-191 1095.6571,-187 1039.3429,-187 1039.3429,-151 1122.6571,-151 1122.6571,-187"/>
<text text-anchor="middle" x="1081" y="-164.8" font-family="Times,serif" font-size="14.00" fill="#000000">AppModule</text>
</g>
<!-- AppComponent&#45;&gt;AppModule -->
<g id="edge1" class="edge">
<title>AppComponent&#45;&gt;AppModule</title>
<path fill="none" stroke="#000000" d="M2106,-122.3228C2106,-145.6602 2106,-183 2106,-183 2106,-183 1132.7709,-183 1132.7709,-183"/>
<polygon fill="#000000" stroke="#000000" points="1132.7709,-179.5001 1122.7709,-183 1132.7708,-186.5001 1132.7709,-179.5001"/>
</g>
<!-- AppComponent  -->
<g id="node18" class="node">
<title>AppComponent </title>
<polygon fill="#80b1d3" stroke="#000000" points="1135.439,-252 1026.561,-252 1026.561,-216 1135.439,-216 1135.439,-252"/>
<text text-anchor="middle" x="1081" y="-229.8" font-family="Times,serif" font-size="14.00" fill="#000000">AppComponent </text>
</g>
<!-- AppModule&#45;&gt;AppComponent  -->
<g id="edge17" class="edge">
<title>AppModule&#45;&gt;AppComponent </title>
<path fill="none" stroke="#000000" stroke-dasharray="1,5" d="M1081,-187.1061C1081,-187.1061 1081,-205.991 1081,-205.991"/>
<polygon fill="#000000" stroke="#000000" points="1077.5001,-205.9909 1081,-215.991 1084.5001,-205.991 1077.5001,-205.9909"/>
</g>
<!-- AdminModule -->
<g id="node3" class="node">
<title>AdminModule</title>
<polygon fill="#8dd3c7" stroke="#000000" points="2029.4386,-122 2026.4386,-126 2005.4386,-126 2002.4386,-122 1930.5614,-122 1930.5614,-86 2029.4386,-86 2029.4386,-122"/>
<text text-anchor="middle" x="1980" y="-99.8" font-family="Times,serif" font-size="14.00" fill="#000000">AdminModule</text>
</g>
<!-- AdminModule&#45;&gt;AppModule -->
<g id="edge2" class="edge">
<title>AdminModule&#45;&gt;AppModule</title>
<path fill="none" stroke="#000000" d="M1980,-122.1554C1980,-144.3519 1980,-179 1980,-179 1980,-179 1132.8558,-179 1132.8558,-179"/>
<polygon fill="#000000" stroke="#000000" points="1132.8558,-175.5001 1122.8558,-179 1132.8557,-182.5001 1132.8558,-175.5001"/>
</g>
<!-- AlertsModule -->
<g id="node4" class="node">
<title>AlertsModule</title>
<polygon fill="#8dd3c7" stroke="#000000" points="1912.7577,-122 1909.7577,-126 1888.7577,-126 1885.7577,-122 1819.2423,-122 1819.2423,-86 1912.7577,-86 1912.7577,-122"/>
<text text-anchor="middle" x="1866" y="-99.8" font-family="Times,serif" font-size="14.00" fill="#000000">AlertsModule</text>
</g>
<!-- AlertsModule&#45;&gt;AppModule -->
<g id="edge3" class="edge">
<title>AlertsModule&#45;&gt;AppModule</title>
<path fill="none" stroke="#000000" d="M1866,-122.2843C1866,-143.3211 1866,-175 1866,-175 1866,-175 1132.9275,-175 1132.9275,-175"/>
<polygon fill="#000000" stroke="#000000" points="1132.9275,-171.5001 1122.9275,-175 1132.9274,-178.5001 1132.9275,-171.5001"/>
</g>
<!-- AppConfigModule -->
<g id="node5" class="node">
<title>AppConfigModule</title>
<polygon fill="#8dd3c7" stroke="#000000" points="1801.045,-122 1798.045,-126 1777.045,-126 1774.045,-122 1678.955,-122 1678.955,-86 1801.045,-86 1801.045,-122"/>
<text text-anchor="middle" x="1740" y="-99.8" font-family="Times,serif" font-size="14.00" fill="#000000">AppConfigModule</text>
</g>
<!-- AppConfigModule&#45;&gt;AppModule -->
<g id="edge4" class="edge">
<title>AppConfigModule&#45;&gt;AppModule</title>
<path fill="none" stroke="#000000" d="M1740,-122.308C1740,-142.1455 1740,-171 1740,-171 1740,-171 1132.7233,-171 1132.7233,-171"/>
<polygon fill="#000000" stroke="#000000" points="1132.7234,-167.5001 1122.7233,-171 1132.7233,-174.5001 1132.7234,-167.5001"/>
</g>
<!-- ChildrenModule -->
<g id="node6" class="node">
<title>ChildrenModule</title>
<polygon fill="#8dd3c7" stroke="#000000" points="1660.0438,-122 1657.0438,-126 1636.0438,-126 1633.0438,-122 1551.9562,-122 1551.9562,-86 1660.0438,-86 1660.0438,-122"/>
<text text-anchor="middle" x="1606" y="-99.8" font-family="Times,serif" font-size="14.00" fill="#000000">ChildrenModule</text>
</g>
<!-- ChildrenModule&#45;&gt;AppModule -->
<g id="edge5" class="edge">
<title>ChildrenModule&#45;&gt;AppModule</title>
<path fill="none" stroke="#000000" d="M1606,-122.2222C1606,-140.8285 1606,-167 1606,-167 1606,-167 1133.0755,-167 1133.0755,-167"/>
<polygon fill="#000000" stroke="#000000" points="1133.0755,-163.5001 1123.0755,-167 1133.0755,-170.5001 1133.0755,-163.5001"/>
</g>
<!-- DashboardModule -->
<g id="node7" class="node">
<title>DashboardModule</title>
<polygon fill="#8dd3c7" stroke="#000000" points="1534.191,-122 1531.191,-126 1510.191,-126 1507.191,-122 1413.809,-122 1413.809,-86 1534.191,-86 1534.191,-122"/>
<text text-anchor="middle" x="1474" y="-99.8" font-family="Times,serif" font-size="14.00" fill="#000000">DashboardModule</text>
</g>
<!-- DashboardModule&#45;&gt;AppModule -->
<g id="edge6" class="edge">
<title>DashboardModule&#45;&gt;AppModule</title>
<path fill="none" stroke="#000000" d="M1474,-122.0225C1474,-139.3734 1474,-163 1474,-163 1474,-163 1132.6858,-163 1132.6858,-163"/>
<polygon fill="#000000" stroke="#000000" points="1132.6859,-159.5001 1122.6858,-163 1132.6858,-166.5001 1132.6859,-159.5001"/>
</g>
<!-- DatabaseModule -->
<g id="node8" class="node">
<title>DatabaseModule</title>
<polygon fill="#8dd3c7" stroke="#000000" points="1395.3501,-122 1392.3501,-126 1371.3501,-126 1368.3501,-122 1284.6499,-122 1284.6499,-86 1395.3501,-86 1395.3501,-122"/>
<text text-anchor="middle" x="1340" y="-99.8" font-family="Times,serif" font-size="14.00" fill="#000000">DatabaseModule</text>
</g>
<!-- DatabaseModule&#45;&gt;AppModule -->
<g id="edge7" class="edge">
<title>DatabaseModule&#45;&gt;AppModule</title>
<path fill="none" stroke="#000000" d="M1340,-122.0091C1340,-138.0494 1340,-159 1340,-159 1340,-159 1132.9007,-159 1132.9007,-159"/>
<polygon fill="#000000" stroke="#000000" points="1132.9007,-155.5001 1122.9007,-159 1132.9006,-162.5001 1132.9007,-155.5001"/>
</g>
<!-- DemoDataModule -->
<g id="node9" class="node">
<title>DemoDataModule</title>
<polygon fill="#8dd3c7" stroke="#000000" points="1266.1881,-122 1263.1881,-126 1242.1881,-126 1239.1881,-122 1145.8119,-122 1145.8119,-86 1266.1881,-86 1266.1881,-122"/>
<text text-anchor="middle" x="1206" y="-99.8" font-family="Times,serif" font-size="14.00" fill="#000000">DemoDataModule</text>
</g>
<!-- DemoDataModule&#45;&gt;AppModule -->
<g id="edge8" class="edge">
<title>DemoDataModule&#45;&gt;AppModule</title>
<path fill="none" stroke="#000000" d="M1206,-122.1243C1206,-136.7832 1206,-155 1206,-155 1206,-155 1132.9709,-155 1132.9709,-155"/>
<polygon fill="#000000" stroke="#000000" points="1132.971,-151.5001 1122.9709,-155 1132.9709,-158.5001 1132.971,-151.5001"/>
</g>
<!-- EntityModule -->
<g id="node10" class="node">
<title>EntityModule</title>
<polygon fill="#8dd3c7" stroke="#000000" points="1127.7745,-122 1124.7745,-126 1103.7745,-126 1100.7745,-122 1034.2255,-122 1034.2255,-86 1127.7745,-86 1127.7745,-122"/>
<text text-anchor="middle" x="1081" y="-99.8" font-family="Times,serif" font-size="14.00" fill="#000000">EntityModule</text>
</g>
<!-- EntityModule&#45;&gt;AppModule -->
<g id="edge9" class="edge">
<title>EntityModule&#45;&gt;AppModule</title>
<path fill="none" stroke="#000000" d="M1081,-122.1061C1081,-122.1061 1081,-140.991 1081,-140.991"/>
<polygon fill="#000000" stroke="#000000" points="1077.5001,-140.9909 1081,-150.991 1084.5001,-140.991 1077.5001,-140.9909"/>
</g>
<!-- LatestChangesModule -->
<g id="node11" class="node">
<title>LatestChangesModule</title>
<polygon fill="#8dd3c7" stroke="#000000" points="1015.9678,-122 1012.9678,-126 991.9678,-126 988.9678,-122 874.0322,-122 874.0322,-86 1015.9678,-86 1015.9678,-122"/>
<text text-anchor="middle" x="945" y="-99.8" font-family="Times,serif" font-size="14.00" fill="#000000">LatestChangesModule</text>
</g>
<!-- LatestChangesModule&#45;&gt;AppModule -->
<g id="edge10" class="edge">
<title>LatestChangesModule&#45;&gt;AppModule</title>
<path fill="none" stroke="#000000" d="M945,-122.1243C945,-136.7832 945,-155 945,-155 945,-155 1029.0858,-155 1029.0858,-155"/>
<polygon fill="#000000" stroke="#000000" points="1029.0858,-158.5001 1039.0858,-155 1029.0858,-151.5001 1029.0858,-158.5001"/>
</g>
<!-- NavigationModule -->
<g id="node12" class="node">
<title>NavigationModule</title>
<polygon fill="#8dd3c7" stroke="#000000" points="855.7576,-122 852.7576,-126 831.7576,-126 828.7576,-122 734.2424,-122 734.2424,-86 855.7576,-86 855.7576,-122"/>
<text text-anchor="middle" x="795" y="-99.8" font-family="Times,serif" font-size="14.00" fill="#000000">NavigationModule</text>
</g>
<!-- NavigationModule&#45;&gt;AppModule -->
<g id="edge11" class="edge">
<title>NavigationModule&#45;&gt;AppModule</title>
<path fill="none" stroke="#000000" d="M795,-122.0091C795,-138.0494 795,-159 795,-159 795,-159 1029.1069,-159 1029.1069,-159"/>
<polygon fill="#000000" stroke="#000000" points="1029.1069,-162.5001 1039.1069,-159 1029.1068,-155.5001 1029.1069,-162.5001"/>
</g>
<!-- SchoolsModule -->
<g id="node13" class="node">
<title>SchoolsModule</title>
<polygon fill="#8dd3c7" stroke="#000000" points="715.8823,-122 712.8823,-126 691.8823,-126 688.8823,-122 612.1177,-122 612.1177,-86 715.8823,-86 715.8823,-122"/>
<text text-anchor="middle" x="664" y="-99.8" font-family="Times,serif" font-size="14.00" fill="#000000">SchoolsModule</text>
</g>
<!-- SchoolsModule&#45;&gt;AppModule -->
<g id="edge12" class="edge">
<title>SchoolsModule&#45;&gt;AppModule</title>
<path fill="none" stroke="#000000" d="M664,-122.0225C664,-139.3734 664,-163 664,-163 664,-163 1029.1072,-163 1029.1072,-163"/>
<polygon fill="#000000" stroke="#000000" points="1029.1072,-166.5001 1039.1072,-163 1029.1071,-159.5001 1029.1072,-166.5001"/>
</g>
<!-- SessionModule -->
<g id="node14" class="node">
<title>SessionModule</title>
<polygon fill="#8dd3c7" stroke="#000000" points="594.3273,-122 591.3273,-126 570.3273,-126 567.3273,-122 491.6727,-122 491.6727,-86 594.3273,-86 594.3273,-122"/>
<text text-anchor="middle" x="543" y="-99.8" font-family="Times,serif" font-size="14.00" fill="#000000">SessionModule</text>
</g>
<!-- SessionModule&#45;&gt;AppModule -->
<g id="edge13" class="edge">
<title>SessionModule&#45;&gt;AppModule</title>
<path fill="none" stroke="#000000" d="M543,-122.2222C543,-140.8285 543,-167 543,-167 543,-167 1029.2317,-167 1029.2317,-167"/>
<polygon fill="#000000" stroke="#000000" points="1029.2318,-170.5001 1039.2317,-167 1029.2317,-163.5001 1029.2318,-170.5001"/>
</g>
<!-- SyncStatusModule -->
<g id="node15" class="node">
<title>SyncStatusModule</title>
<polygon fill="#8dd3c7" stroke="#000000" points="473.7702,-122 470.7702,-126 449.7702,-126 446.7702,-122 352.2298,-122 352.2298,-86 473.7702,-86 473.7702,-122"/>
<text text-anchor="middle" x="413" y="-99.8" font-family="Times,serif" font-size="14.00" fill="#000000">SyncStatusModule</text>
</g>
<!-- SyncStatusModule&#45;&gt;AppModule -->
<g id="edge14" class="edge">
<title>SyncStatusModule&#45;&gt;AppModule</title>
<path fill="none" stroke="#000000" d="M413,-122.308C413,-142.1455 413,-171 413,-171 413,-171 1029.2136,-171 1029.2136,-171"/>
<polygon fill="#000000" stroke="#000000" points="1029.2136,-174.5001 1039.2136,-171 1029.2136,-167.5001 1029.2136,-174.5001"/>
</g>
<!-- UiModule -->
<g id="node16" class="node">
<title>UiModule</title>
<polygon fill="#8dd3c7" stroke="#000000" points="333.5484,-122 330.5484,-126 309.5484,-126 306.5484,-122 260.4516,-122 260.4516,-86 333.5484,-86 333.5484,-122"/>
<text text-anchor="middle" x="297" y="-99.8" font-family="Times,serif" font-size="14.00" fill="#000000">UiModule</text>
</g>
<!-- UiModule&#45;&gt;AppModule -->
<g id="edge15" class="edge">
<title>UiModule&#45;&gt;AppModule</title>
<path fill="none" stroke="#000000" d="M297,-122.2843C297,-143.3211 297,-175 297,-175 297,-175 1029.1259,-175 1029.1259,-175"/>
<polygon fill="#000000" stroke="#000000" points="1029.126,-178.5001 1039.1259,-175 1029.1259,-171.5001 1029.126,-178.5001"/>
</g>
<!-- UserModule -->
<g id="node17" class="node">
<title>UserModule</title>
<polygon fill="#8dd3c7" stroke="#000000" points="241.9762,-122 238.9762,-126 217.9762,-126 214.9762,-122 156.0238,-122 156.0238,-86 241.9762,-86 241.9762,-122"/>
<text text-anchor="middle" x="199" y="-99.8" font-family="Times,serif" font-size="14.00" fill="#000000">UserModule</text>
</g>
<!-- UserModule&#45;&gt;AppModule -->
<g id="edge16" class="edge">
<title>UserModule&#45;&gt;AppModule</title>
<path fill="none" stroke="#000000" d="M199,-122.1554C199,-144.3519 199,-179 199,-179 199,-179 1029.0527,-179 1029.0527,-179"/>
<polygon fill="#000000" stroke="#000000" points="1029.0527,-182.5001 1039.0527,-179 1029.0526,-175.5001 1029.0527,-182.5001"/>
</g>
<!-- AppConfig -->
<g id="node19" class="node">
<title>AppConfig</title>
<ellipse fill="#fdb462" stroke="#000000" cx="78" cy="-104" rx="54.4778" ry="18"/>
<text text-anchor="middle" x="78" y="-99.8" font-family="Times,serif" font-size="14.00" fill="#000000">AppConfig</text>
</g>
<!-- AppConfig&#45;&gt;AppModule -->
<g id="edge18" class="edge">
<title>AppConfig&#45;&gt;AppModule</title>
<path fill="none" stroke="#000000" d="M78,-122.3228C78,-145.6602 78,-183 78,-183 78,-183 1029.1793,-183 1029.1793,-183"/>
<polygon fill="#000000" stroke="#000000" points="1029.1793,-186.5001 1039.1793,-183 1029.1793,-179.5001 1029.1793,-186.5001"/>
</g>
</g>
</svg>
