<?xml version="1.0" encoding="UTF-8" standalone="no"?>
<!DOCTYPE svg PUBLIC "-//W3C//DTD SVG 1.1//EN"
 "http://www.w3.org/Graphics/SVG/1.1/DTD/svg11.dtd">
<!-- Generated by graphviz version 2.40.1 (20161225.0304)
 -->
<!-- Title: dependencies Pages: 1 -->
<svg width="584pt" height="211pt"
 viewBox="0.00 0.00 584.00 211.00" xmlns="http://www.w3.org/2000/svg" xmlns:xlink="http://www.w3.org/1999/xlink">
<g id="graph0" class="graph" transform="scale(1 1) rotate(0) translate(4 207)">
<title>dependencies</title>
<polygon fill="#ffffff" stroke="transparent" points="-4,4 -4,-207 580,-207 580,4 -4,4"/>
<text text-anchor="start" x="267.0091" y="-42.4" font-family="sans-serif" font-weight="bold" font-size="14.00" fill="#000000">Legend</text>
<polygon fill="#ffffb3" stroke="transparent" points="54,-10 54,-30 74,-30 74,-10 54,-10"/>
<text text-anchor="start" x="77.629" y="-15.4" font-family="sans-serif" font-size="14.00" fill="#000000"> &#160;Declarations</text>
<polygon fill="#8dd3c7" stroke="transparent" points="167,-10 167,-30 187,-30 187,-10 167,-10"/>
<text text-anchor="start" x="190.7251" y="-15.4" font-family="sans-serif" font-size="14.00" fill="#000000"> &#160;Module</text>
<polygon fill="#80b1d3" stroke="transparent" points="253,-10 253,-30 273,-30 273,-10 253,-10"/>
<text text-anchor="start" x="276.7812" y="-15.4" font-family="sans-serif" font-size="14.00" fill="#000000"> &#160;Bootstrap</text>
<polygon fill="#fdb462" stroke="transparent" points="350,-10 350,-30 370,-30 370,-10 350,-10"/>
<text text-anchor="start" x="373.6732" y="-15.4" font-family="sans-serif" font-size="14.00" fill="#000000"> &#160;Providers</text>
<polygon fill="#fb8072" stroke="transparent" points="446,-10 446,-30 466,-30 466,-10 446,-10"/>
<text text-anchor="start" x="469.7258" y="-15.4" font-family="sans-serif" font-size="14.00" fill="#000000"> &#160;Exports</text>
<g id="clust1" class="cluster">
<title>cluster_EntityModule</title>
<polygon fill="none" stroke="#000000" stroke-dasharray="1,5" points="8,-70 8,-195 568,-195 568,-70 8,-70"/>
</g>
<g id="clust3" class="cluster">
<title>cluster_EntityModule_imports</title>
<polygon fill="none" stroke="#000000" points="434,-78 434,-130 560,-130 560,-78 434,-78"/>
</g>
<g id="clust6" class="cluster">
<title>cluster_EntityModule_providers</title>
<polygon fill="none" stroke="#000000" points="16,-78 16,-130 426,-130 426,-78 16,-78"/>
</g>
<!-- DatabaseModule -->
<g id="node1" class="node">
<title>DatabaseModule</title>
<polygon fill="#8dd3c7" stroke="#000000" points="552.3501,-122 549.3501,-126 528.3501,-126 525.3501,-122 441.6499,-122 441.6499,-86 552.3501,-86 552.3501,-122"/>
<text text-anchor="middle" x="497" y="-99.8" font-family="Times,serif" font-size="14.00" fill="#000000">DatabaseModule</text>
</g>
<!-- EntityModule -->
<g id="node2" class="node">
<title>EntityModule</title>
<polygon fill="#8dd3c7" stroke="#000000" points="370.7745,-187 367.7745,-191 346.7745,-191 343.7745,-187 277.2255,-187 277.2255,-151 370.7745,-151 370.7745,-187"/>
<text text-anchor="middle" x="324" y="-164.8" font-family="Times,serif" font-size="14.00" fill="#000000">EntityModule</text>
</g>
<!-- DatabaseModule&#45;&gt;EntityModule -->
<g id="edge1" class="edge">
<title>DatabaseModule&#45;&gt;EntityModule</title>
<path fill="none" stroke="#000000" d="M497,-122.1061C497,-141.3391 497,-169 497,-169 497,-169 380.8163,-169 380.8163,-169"/>
<polygon fill="#000000" stroke="#000000" points="380.8163,-165.5001 370.8163,-169 380.8163,-172.5001 380.8163,-165.5001"/>
</g>
<!-- EntityMapperService -->
<g id="node3" class="node">
<title>EntityMapperService</title>
<ellipse fill="#fdb462" stroke="#000000" cx="324" cy="-104" rx="93.7572" ry="18"/>
<text text-anchor="middle" x="324" y="-99.8" font-family="Times,serif" font-size="14.00" fill="#000000">EntityMapperService</text>
</g>
<!-- EntityMapperService&#45;&gt;EntityModule -->
<g id="edge2" class="edge">
<title>EntityMapperService&#45;&gt;EntityModule</title>
<path fill="none" stroke="#000000" d="M324,-122.1061C324,-122.1061 324,-140.991 324,-140.991"/>
<polygon fill="#000000" stroke="#000000" points="320.5001,-140.9909 324,-150.991 327.5001,-140.991 320.5001,-140.9909"/>
</g>
<!-- EntitySchemaService -->
<g id="node4" class="node">
<title>EntitySchemaService</title>
<ellipse fill="#fdb462" stroke="#000000" cx="118" cy="-104" rx="94.3369" ry="18"/>
<text text-anchor="middle" x="118" y="-99.8" font-family="Times,serif" font-size="14.00" fill="#000000">EntitySchemaService</text>
</g>
<!-- EntitySchemaService&#45;&gt;EntityModule -->
<g id="edge3" class="edge">
<title>EntitySchemaService&#45;&gt;EntityModule</title>
<path fill="none" stroke="#000000" d="M118,-122.1061C118,-141.3391 118,-169 118,-169 118,-169 266.9976,-169 266.9976,-169"/>
<polygon fill="#000000" stroke="#000000" points="266.9977,-172.5001 276.9976,-169 266.9976,-165.5001 266.9977,-172.5001"/>
</g>
</g>
</svg>
